<svg version="1" xmlns="http://www.w3.org/2000/svg" width="666.667" height="666.667" viewBox="0 0 500.000000 500.000000"><path d="M0 250v250h25.8l25.7-.1 2.1-3.2c1.1-1.8 5-7.5 8.6-12.7 9.9-14.5 40.9-59.8 51.7-75.5 5.2-7.7 12.8-18.7 16.8-24.5 3.9-5.8 10.1-14.8 13.7-20 3.5-5.2 9.5-14 13.3-19.5 3.8-5.5 11.3-16.5 16.8-24.5 5.4-8 12.5-18.3 15.7-22.9 3.2-4.7 5.6-8.6 5.5-8.7-.2-.2-2.5.4-5.2 1.2-2.8.8-7.2 2.1-10 2.8-2.7.8-10.4 3-17 4.9-61.6 18.1-98.8 28.8-99.4 28.5-.5-.2.7-3.5 2.5-7.3 6.2-13 13.1-27.9 32.2-69 10.5-22.6 20.7-44.7 22.7-49 2-4.4 5-10.7 6.5-14 17.1-36.9 17.6-38.1 27.9-59.9 2.8-5.9 5.1-11 5.1-11.2 0-.2 2.7-6.1 6.1-13.1 3.4-7 6.9-14.6 7.9-16.8.9-2.2 6.4-13.9 12-26 13.4-28.8 16.3-35 21.7-47 2.5-5.5 5-10.6 5.6-11.3C215 .3 193.6 0 107.6 0H0v250zM393.9 14.2c-5.9 7.9-18.6 25.1-28.4 38.3-27.8 37.6-43.9 59.2-58.5 78.9-41 55.1-50.2 67.8-49.7 68.2.3.3 6.5-.8 13.9-2.6 14.6-3.4 16.4-3.8 19.3-4.4 1.1-.2 10.9-2.5 21.8-5s20.8-4.8 22-5c2.7-.6 32.1-7.3 52.3-12 8.4-1.9 16.3-3.7 17.5-4 1.3-.2 10.5-2.3 20.4-4.6 9.9-2.3 18.9-4.4 20-4.6 1.1-.2 6.5-1.5 12-2.8 10.1-2.3 12.3-2.4 9.4-.3-.9.7-5.6 4.9-10.5 9.4s-10 9.1-11.3 10.3c-3.5 2.9-18.1 16.1-20.6 18.5a1786 1786 0 0 1-15.5 14 1786 1786 0 0 0-15.5 14c-1.1 1.1-5.9 5.4-10.5 9.5s-9.4 8.4-10.5 9.5c-1.2 1.1-5.9 5.4-10.5 9.5-4.7 4.1-9.4 8.4-10.6 9.5-2.4 2.3-8.7 8-19.9 18-4.3 3.8-8.8 7.9-9.9 9-1.2 1.1-6.2 5.6-11.1 10-4.9 4.4-9.9 8.9-11.1 10-3.1 2.9-9.2 8.4-24.9 22.5-7.7 6.9-14.2 12.8-14.5 13.1-.3.3-4.9 4.5-10.3 9.3-5.4 4.9-9.6 9.1-9.3 9.3.3.3 2.2-.1 4.3-.8 2.1-.7 4.3-1.4 4.8-1.5.6-.1 15.6-4.3 33.5-9.4 17.9-5 33.2-9.3 34-9.5.8-.2 3-.9 4.9-1.4 1.9-.6 3.6-.9 3.8-.7.2.1-2.3 2.3-5.4 4.8-3.2 2.4-48.3 37.4-100.3 77.8-52 40.3-96.7 75.1-99.4 77.2l-4.9 3.8H500V0h-95.6l-10.5 14.2z"/></svg>