<?xml version="1.0" standalone="no"?>
<!DOCTYPE svg PUBLIC "-//W3C//DTD SVG 20010904//EN"
 "http://www.w3.org/TR/2001/REC-SVG-20010904/DTD/svg10.dtd">
<svg version="1.0" xmlns="http://www.w3.org/2000/svg"
 width="500.000000pt" height="500.000000pt" viewBox="0 0 500.000000 500.000000"
 preserveAspectRatio="xMidYMid meet">
<metadata>
Created by potrace 1.11, written by Peter Selinger 2001-2013
</metadata>
<g transform="translate(0.000000,500.000000) scale(0.100000,-0.100000)"
fill="#000000" stroke="none">
<path d="M2155 4889 c-404 -60 -777 -215 -1100 -457 -122 -92 -133 -101 -260
-227 -267 -264 -460 -576 -583 -940 -32 -95 -57 -187 -67 -245 -3 -19 -10 -51
-15 -70 -5 -19 -11 -57 -15 -85 -3 -27 -10 -81 -15 -120 -9 -69 -7 -477 3
-525 3 -14 8 -43 11 -65 4 -35 26 -149 40 -210 48 -218 166 -502 291 -704 128
-206 319 -431 481 -565 l32 -26 100 148 c166 243 261 382 330 482 37 52 96
138 132 191 110 163 211 311 265 389 28 41 107 156 175 255 68 99 143 209 167
244 32 46 39 62 26 59 -10 -3 -90 -27 -178 -52 -88 -26 -227 -67 -310 -91
-133 -39 -265 -77 -543 -158 -45 -14 -82 -23 -82 -21 0 3 13 32 29 67 119 258
228 493 256 552 18 39 44 95 58 125 14 31 44 96 67 145 23 50 67 144 97 210
30 66 73 158 95 205 22 47 57 121 78 165 20 44 58 124 84 179 25 54 46 99 46
101 0 2 27 60 60 130 33 70 60 128 60 130 0 2 29 65 65 140 36 75 65 138 65
139 0 2 22 50 49 107 71 150 191 411 191 416 0 6 -67 -1 -185 -18z"/>
<path d="M3559 4359 c-90 -122 -225 -303 -299 -403 -74 -100 -218 -294 -320
-431 -102 -137 -202 -272 -222 -299 -20 -27 -35 -53 -33 -57 3 -4 25 -1 49 6
24 8 57 16 73 18 15 3 51 10 78 17 28 6 57 13 65 15 21 4 563 129 767 176 95
22 185 42 200 45 14 3 30 7 33 9 4 2 22 7 41 10 19 3 79 17 134 30 135 32 284
66 318 72 26 4 25 2 -20 -39 -26 -24 -57 -52 -68 -63 -12 -11 -63 -58 -115
-104 -52 -47 -104 -94 -116 -105 -12 -12 -36 -34 -55 -51 -39 -34 -213 -191
-279 -251 -25 -23 -144 -130 -265 -239 -256 -231 -376 -339 -418 -378 -17 -16
-62 -56 -100 -90 -38 -34 -82 -73 -97 -87 -66 -60 -132 -120 -210 -190 -46
-41 -107 -96 -134 -122 l-51 -46 105 30 c58 16 177 50 265 74 88 25 201 57
250 71 50 14 99 28 110 31 11 3 -14 -21 -55 -54 -41 -32 -80 -63 -87 -69 -6
-5 -24 -20 -40 -31 -73 -56 -1423 -1105 -1561 -1213 -13 -10 -74 -58 -137
-106 -63 -49 -112 -92 -109 -96 8 -14 163 -95 272 -143 162 -73 425 -152 565
-171 27 -4 57 -8 66 -10 133 -25 592 -25 691 0 8 2 35 7 60 10 25 4 72 13 105
20 33 8 71 16 85 19 47 10 145 37 215 61 390 130 628 277 911 561 289 292 448
560 569 960 85 279 110 454 110 759 0 202 -5 266 -29 415 -65 391 -243 779
-510 1110 -58 72 -240 258 -301 310 -91 75 -262 196 -321 228 -20 11 -33 -3
-185 -209z"/>
</g>
</svg>
